<svg xmlns="http://www.w3.org/2000/svg" viewBox="0 0 200 200"><path d="M30 35v4h60v-4H30z"><animate dur="2500ms" repeatCount="indefinite" fill="freeze" calcMode="discrete" attributeName="opacity" values="1;0.2;1;0.2" keyTimes="0;0.4;0.4;0.7"/></path><path d="m90 30-6 5v124l.099609 2.5L84.5 164l.800781 2.40039 1.298828 2.29883 1.59961 2 2 1.60156L92.5 173.59961l2.400391.80078 2.5.40039L100 175h70l3.59961-2.40039L176 169l-2.40039-3.59961L170 163l2-25h-2l-6 25h-64l-1.300781-.09961-.898438-.20117-.601562-.19922-.298828-.09961-.201172-.20117L96.5 162l-.099609-.30078-.201172-.59961L96 160.19922V43l5-4-11-9z"><animate dur="2500ms" repeatCount="indefinite" fill="freeze" calcMode="discrete" attributeName="opacity" values="1;0.2;1;0.2" keyTimes="0;0.4;0.7;1"/></path></svg>