<svg xmlns="http://www.w3.org/2000/svg" viewBox="0 0 200 200"><path d="m94.599609 18.199219-.591797 1.304687L94 19.5l-.050781.130859-.34961.769532.044922.015625-2.24414 5.783203-2.800782 6.5-2.90039 6.40039-3 6.300782-3.199219 6-3.300781 6-3.398438 5.798828-3.5 5.800781-3.5 5.699219-3.5 5.701172L63.599609 81.5l5.09961-4.400391 4.90039-4.90039L78.199219 67 82.5 61.599609l4.199219-5.699218 4-5.900391 3.90039-6.099609L98.199219 37.5l3.500001-6.5 1.625-3.248047L107 27.300781l-1.90039-3.101562-10.500001-6z"><animate dur="4750ms" repeatCount="indefinite" fill="freeze" calcMode="discrete" attributeName="opacity" values="1;0.2;1;0.2" keyTimes="0;0.211;0.211;0.368"/></path><path d="m38.300781 63.699219-1 1.5 5.898438 5L48.800781 75l5.398438 4.699219 5 4.601562 4.701172 4.59961L68.300781 93.5l4 4.599609L76 102.69922l3.300781 4.60156 3 4.59961 3.898438 2.40039 4.5-.90039 2.40039-3.90039-.90039-4.40039-3.898438-4.79883-4.201172-4.601561-4.5-4.5-4.90039-4.398438L69.599609 82.5 64 78.400391l-5.800781-4-6.298828-3.800782L45.300781 67l-7-3.300781z"><animate dur="4750ms" repeatCount="indefinite" fill="freeze" calcMode="discrete" attributeName="opacity" values="1;0.2;1;0.2" keyTimes="0;0.211;0.368;0.526"/></path><path d="m133.69922 55.099609-.56055 1.119141-.03906-.019531L127 68.800781l-6.5 12.298828L113.69922 93 106.5 104.59961l-7.599609 11.30078-7.900391 11-8.199219 10.69922-8.5 10.40039-8.90039 10.19922-9.09961 10.10156 1.298828 1.29883 10.5-8.69922 10.09961-9.20117 9.601562-9.79883L97 131.59961l8.69922-10.69922 8.40039-11 8.09961-11.499999L129.80078 86.5 137 74.199219l5.04492-9.285157 3.6543-.314453L143.90039 61.5l-10.20117-6.400391z"><animate dur="4750ms" repeatCount="indefinite" fill="freeze" calcMode="discrete" attributeName="opacity" values="1;0.2;1;0.2" keyTimes="0;0.211;0.526;0.684"/></path><path d="m156.80078 149.09961-11.90039 1L132.80078 151.5l-12.20117 1.59961-12.5 1.70117-12.699219 1.89844L82.5 158.80078l-13.099609 2.09961-13.300782 2.19922L42.5 165.40039l-13.699219 2.5-2 .40039 4.298828 11.29883 2.59961 2.59961 1.404297-3.48242 9.595703-2.11719 13.40039-2.90039 13.201172-3 13-2.79883L97 165.09961l12.5-2.79883L121.69922 159.5l12.10156-2.80078 11.79883-2.79883 11.5-3.09961-.29883-1.70117z"><animate dur="4750ms" repeatCount="indefinite" fill="freeze" calcMode="discrete" attributeName="opacity" values="1;0.2;1;0.2" keyTimes="0;0.211;0.684;0.842"/></path><path d="m134.30078 112.19922-1.40039 1.10156L136.80078 120l3.89844 6.59961 3.70117 6.70117L148 140l3.40039 6.69922 3.19922 6.90039 3 7 2.80078 7 2.5 7.20117 2.40039 7.29883 3.09961 3.40039 4.5.30078 3.40039-3.10156.29883-4.59961-3-7.40039-3.40039-7.29883-3.5-7.09961-3.79883-6.90039-4.09961-6.80078-4.30078-6.5-4.59961-6.40039-4.80078-6.09961-5.19922-5.90039-5.59961-5.5z"><animate dur="4750ms" repeatCount="indefinite" fill="freeze" calcMode="discrete" attributeName="opacity" values="1;0.2;1;0.2" keyTimes="0;0.211;0.842;1"/></path></svg>