<svg xmlns="http://www.w3.org/2000/svg" viewBox="0 0 200 200"><path d="m84.199219 19.400391-.59961 1.699218 4.701172 2.201172 4.09961 2.298828 3.90039 2.201172L99.699219 30l3.101561 2.199219L105.5 34.300781l2.30078 2.09961 1.89844 2 1.5 2 1.20117 1.798828 4 2.300781 4.40039-1.199219 2.19922-4-1.09961-4.40039-2.5-2.300782L116.59961 30.5l-3-1.900391-3.29883-1.798828-3.70117-1.601562-3.79883-1.5-4.201171-1.298828-4.5-1.09961-4.90039-.90039-5-1z"><animate dur="4000ms" repeatCount="indefinite" fill="freeze" calcMode="discrete" attributeName="opacity" values="1;0.2;1;0.2" keyTimes="0;0.25;0.25;0.438"/></path><path d="m63.099609 67.300781-.40039 1.798828 4.601562 2L71.5 73.300781l3.900391 2.09961 3.5 2.199218 3.199218 2.09961 2.800782 2.101562L87.300781 84l2.09961 2.099609L91 88.199219l1.400391 2.101562 4 2.199219 4.400389-1.199219 2.19922-4-1.19922-4.40039-2.601561-2.5-3-2.201172L93 76.099609l-3.400391-1.798828-3.699218-1.601562-4-1.5L77.599609 70l-4.5-1.099609-4.90039-.800782-5.09961-.798828z"><animate dur="4000ms" repeatCount="indefinite" fill="freeze" calcMode="discrete" attributeName="opacity" values="1;0.2;1;0.2" keyTimes="0;0.25;0.438;0.625"/></path><path d="M65.099609 132.30078 64.699219 134l7 3 6 3.30078 4.90039 3.59961 4.09961 3.90039L89.900391 152l2.298828 4.69922 1.601562 5 .898438 5.60156.201172 6.29883-.59961 6.80078 1.398438 4.29883 4 2.20117L104 185.5l2.19922-4v-8.09961l-.89844-7.59961-1.90039-7L100.5 152.5l-3.800781-5.5-4.798828-4.69922-5.59961-3.90039L80 135.5l-7.099609-2.09961-7.800782-1.09961z"><animate dur="4000ms" repeatCount="indefinite" fill="freeze" calcMode="discrete" attributeName="opacity" values="1;0.2;1;0.2" keyTimes="0;0.25;0.625;0.813"/></path><path d="m135.09961 57.599609-8 15.09961L120 86.400391l-6.40039 12.5L108 110l-4.90039 9.69922L98.800781 128l-3.5 7-3 5.5-2.201172 4.19922L88.5 147.5l10.900391 4.90039.999999-3L102.09961 145l2.30078-5.90039 2.90039-7.19922 3.5-8.70117 4.09961-10.09961 4.69922-11.5 5.30078-12.900391 5.69922-14.5 6.20117-15.898438-1.70117-.701172z"><animate dur="4000ms" repeatCount="indefinite" fill="freeze" calcMode="discrete" attributeName="opacity" values="1;0.2;1;0.2" keyTimes="0;0.25;0.813;1"/></path></svg>