<svg xmlns="http://www.w3.org/2000/svg" viewBox="0 0 200 200"><path d="M76.400391 26v4h57.199219v-4H76.400391z"><animate dur="4000ms" repeatCount="indefinite" fill="freeze" calcMode="discrete" attributeName="opacity" values="1;0.2;1;0.2" keyTimes="0;0.25;0.25;0.438"/></path><path d="m133.59961 21-5.43555 4.529297-.06445-.029297-.04883.123047L127.59961 26v.775391l-1.5 3.824218-2.19922 5.09961-2.40039 5.40039-2.69922 5.5-2.90039 5.59961-3.09961 5.90039-3.30078 6-3.5 6.201172-3.59961 6.398438-3.701171 6.701172L100.19922 84.5 105.5 78.900391l4.90039-5.59961L115 67.699219l4.19922-5.5 3.90039-5.5 3.70117-5.5 3.5-5.298828 3.09961-5.300782 3-5.099609.75586-1.482422L139.59961 33l5-3-11-9z"><animate dur="4000ms" repeatCount="indefinite" fill="freeze" calcMode="discrete" attributeName="opacity" values="1;0.2;1;0.2" keyTimes="0;0.25;0.438;0.625"/></path><path d="m100.69922 82.5-.59961 1.599609 10 6.701172L118 97.199219l5.80078 6.601561 4 6.69922 2.5 6.69922 1.19922 6.5.19922 6.30078L131 135.59961 129.69922 140.5l-1.59961 3.80078-.69922 1.29883-.70117 1-.69922.80078-.69922.69922-.80078.5-.80078.5-.89844.30078-1.10156.29883-1.19922.20117-1.30078.09961h-12v3l12 3v6l2.5-.19922 2.40039-.30078 2.40039-.69922 2.30078-.90039 2.09961-1.09961 2-1.5 1.79883-1.60156 1.60156-1.89844 1.39844-2.10156 1.20117-2.19922 1.90039-5.69922 1.19922-6.5.30078-7.30078-.90039-7.69922-2.20117-8-3.79883-7.90039-5.5-7.599609-7.5-6.800781-9.59961-5.800781L100.69922 82.5z"><animate dur="4000ms" repeatCount="indefinite" fill="freeze" calcMode="discrete" attributeName="opacity" values="1;0.2;1;0.2" keyTimes="0;0.25;0.625;0.813"/></path><path d="M70.400391 20v169l12-6V26l-12-6z"><animate dur="4000ms" repeatCount="indefinite" fill="freeze" calcMode="discrete" attributeName="opacity" values="1;0.2;1;0.2" keyTimes="0;0.25;0.813;1"/></path></svg>